<svg id="Capa_1" enable-background="new 0 0 512 512" height="512" viewBox="0 0 512 512" width="512" xmlns="http://www.w3.org/2000/svg"><g><g><path d="m301 78.779h-30v-33.779c0-8.276-6.738-15-15-15s-15 6.724-15 15v33.779h-30v-33.779c0-24.814 20.186-45 45-45s45 20.186 45 45z" fill="#ffbe40"/></g><path d="m271 45v33.779h30v-33.779c0-24.814-20.186-45-45-45v30c8.262 0 15 6.724 15 15z" fill="#ff9f40"/><g><path d="m196 512c-24.814 0-45-20.186-45-45v-45h90v45c0 24.814-20.186 45-45 45z" fill="#ffbe40"/></g><g id="Bell_1_"><g><path d="m406 362c-8.401 0-15-6.601-15-15v-146.901c0-75.899-58.2-140.099-135-140.099-72.9 0-135 59.099-135 135v152c0 8.399-6.599 15-15 15h-45v90h390v-90z" fill="#ffdf40"/></g></g><path d="m451 362v90h-195v-392c76.8 0 135 64.2 135 140.099v146.901c0 8.399 6.599 15 15 15z" fill="#ffbe40"/></g></svg>