<svg height="512" viewBox="0 0 58 58" width="512" xmlns="http://www.w3.org/2000/svg"><g id="045---Buffering-Stream" fill="none"><path id="Shape" d="m31 2v5.071c-.0039339.51839158-.2147573 1.01373952-.5856195 1.37596393s-.8710401.56131777-1.3893805.55303607h-.05c-.5183404.0082817-1.0185183-.19081166-1.3893805-.55303607s-.5816856-.85757235-.5856195-1.37596393v-4.959c-.020672-1.06388037.7667705-1.97097264 1.823-2.1.5582882-.04960436 1.1117725.13733264 1.5256556.5152838.4138832.37795115.6501808.91222984.6513444 1.4727162z" fill="#ecf0f1"/><path id="Shape" d="m31 50.929v4.949c.0243255 1.006191-.6729469 1.8864027-1.658 2.093-.5813369.0991234-1.1768319-.062709-1.6280357-.4424368-.4512037-.3797279-.7123541-.9388383-.7139643-1.5285632v-5.071c.0039339-.5183916.2147573-1.0137395.5856195-1.3759639s.8710401-.5613178 1.3893805-.5530361h.05c.5183404-.0082817 1.0185183.1908117 1.3893805.5530361s.5816856.8575723.5856195 1.3759639z" fill="#3b97d3"/><path id="Shape" d="m21.365 10.51c-.4793813.222216-1.0284668.2401642-1.5213366.0497287-.4928699-.1904356-.8872373-.57291611-1.0926634-1.0597287l-1.861-4.51c-.3992648-.90749901-.1291342-1.97028731.655-2.577.4944996-.34607974 1.1196481-.44823661 1.6985903-.2775703s1.0487115.59559394 1.2764097 1.1545703l1.935 4.683c.1934104.48084313.1871232 1.01895616-.017469 1.49514913-.2045921.47619296-.5906024.85116127-1.072531 1.04185087z" fill="#9fc9d3"/><path id="Shape" d="m40.1 55.79c-.4905463.2052821-1.0426488.2067566-1.5342845.0040976s-.8823235-.5927646-1.0857155-1.0840976l-1.935-4.683c-.3492891-1.0038996.1455537-2.1059254 1.1279083-2.5118768.9823547-.4059515 2.1107984.0252622 2.5720917.9828768l1.935 4.682c.4208941 1.0189654-.0621694 2.1863689-1.08 2.61z" fill="#3b97d3"/><path id="Shape" d="m14.874 14.846c-.3576143.3862962-.8564739.6112316-1.3827465.6234793-.5262725.0122476-1.0350559-.1892374-1.4102535-.5584793l-3.512-3.511c-.77023418-.7376132-.85667402-1.93869464-.2-2.779.35924822-.43259253.88444972-.69339162 1.44621723-.71814747.56176747-.02475586 1.10787427.18883303 1.50378277.58814747l3.591 3.591c.3636439.3703292.5643751.8705223.5576157 1.3894972-.0067594.5189748-.2204501 1.0137703-.5936157 1.3745028z" fill="#9fc9d3"/><path id="Shape" d="m49.251 49.73c-.8399748.5541019-1.9560911.4277968-2.651-.3l-3.511-3.511c-.7814829-.7814829-.7814829-2.0485171 0-2.83s2.0485171-.7814829 2.83 0l3.591 3.591c.4179618.4168701.6304135.99709.5804648 1.5852888s-.357195 1.124287-.8394648 1.4647112z" fill="#2980ba"/><path id="Shape" d="m14.874 14.846c-.3576143.3862962-.8564739.6112316-1.3827465.6234793-.5262725.0122476-1.0350559-.1892374-1.4102535-.5584793l-3.512-3.511c-.77023418-.7376132-.85667402-1.93869464-.2-2.779.35924822-.43259253.88444972-.69339162 1.44621723-.71814747.56176747-.02475586 1.10787427.18883303 1.50378277.58814747l3.591 3.591c.3636439.3703292.5643751.8705223.5576157 1.3894972-.0067594.5189748-.2204501 1.0137703-.5936157 1.3745028z" fill="#9fc9d3"/><path id="Shape" d="m49.251 49.73c-.8399748.5541019-1.9560911.4277968-2.651-.3l-3.511-3.511c-.7814829-.7814829-.7814829-2.0485171 0-2.83s2.0485171-.7814829 2.83 0l3.591 3.591c.4179618.4168701.6304135.99709.5804648 1.5852888s-.357195 1.124287-.8394648 1.4647112z" fill="#2980ba"/><path id="Shape" d="m21.365 47.49c.4819286.1906896.8679389.5656579 1.072531 1.0418509.2045922.4761929.2108794 1.014306.017469 1.4951491l-1.935 4.683c-.4224979 1.0217268-1.5932732 1.5074978-2.615 1.0849999-1.0217267-.4224978-1.5074978-1.5932731-1.085-2.6149999l1.931-4.68c.2052014-.4870031.5995527-.8696716 1.0925048-1.0601389.4929522-.1904674 1.0421521-.1723692 1.5214952.0501389z" fill="#3b97d3"/><path id="Shape" d="m9 29v.025c.0082817.5183404-.19081166 1.0185183-.55303607 1.3893805s-.85757235.5816856-1.37596393.5856195h-4.959c-1.06388037.020672-1.97097264-.7667705-2.1-1.823-.04960436-.5582882.13733264-1.1117725.5152838-1.5256556.37795115-.4138832.91222984-.6501808 1.4727162-.6513444h5.071c.5224754.0049094 1.02107649.219505 1.38380302.5955822.36272653.3760773.55916764.8821061.54519698 1.4044178z" fill="#84b5cb"/><path id="Shape" d="m57.971 29.342c-.2065973.9850531-1.086809 1.6823255-2.093 1.658h-4.949c-.5183916-.0039339-1.0137395-.2147573-1.3759639-.5856195s-.5613178-.8710401-.5530361-1.3893805v-.05c-.0082817-.5183404.1908117-1.0185183.5530361-1.3893805s.8575723-.5816856 1.3759639-.5856195h5.071c.5897249.0016102 1.1488353.2627606 1.5285632.7139643.3797278.4512038.5415602 1.0466988.4424368 1.6280357z" fill="#2980ba"/><path id="Shape" d="m9.5 39.249-4.51 1.86c-.90790821.3994035-1.97113236.129784-2.579-.654-.34597826-.4947648-.44784929-1.1201445-.27677989-1.6991336.1710694-.5789892.59646337-1.0485819 1.15577989-1.2758664l4.683-1.935c1.00389956-.3492891 2.1059254.1455537 2.5118768 1.1279083.4059515.9823547-.0252622 2.1107984-.9828768 2.5720917z" fill="#84b5cb"/><path id="Shape" d="m10.527 21.325c-.1825958.4933894-.55708483.8918865-1.03819173 1.104749-.4811069.2128624-1.02787836.2219708-1.51580827.025251l-4.683-1.935c-.74788926-.3110306-1.23650979-1.0400209-1.24-1.85.02599087-.6920921.39851605-1.3246442.99116851-1.6830156.59265245-.3583714 1.32586164-.3944466 1.95083149-.0959844l4.51 1.86c.47944668.202821.8577028.5891968 1.0502967 1.0728424s.1834835 1.0242757-.0252967 1.5011576z" fill="#9fc9d3"/><path id="Shape" d="m55.79 40.1c-.4236311 1.0178306-1.5910346 1.5008941-2.61 1.08l-4.68-1.931c-.9576146-.4612933-1.3888283-1.589737-.9828768-2.5720917.4059514-.9823546 1.5079772-1.4771974 2.5118768-1.1279083l4.681 1.931c.491333.203392.8814386.5940798 1.0840976 1.0857155s.2011845 1.0437382-.0040976 1.5342845z" fill="#2980ba"/><path id="Shape" d="m14.911 45.919-3.511 3.511c-.6949089.7277968-1.81102525.8541019-2.651.3-.48226976-.3404242-.78951611-.8765124-.83946479-1.4647112-.04994869-.5881988.16250296-1.1684187.58046479-1.5852888l3.591-3.591c.7814829-.7814829 2.0485171-.7814829 2.83 0s.7814829 2.0485171 0 2.83z" fill="#84b5cb"/><path id="Shape" d="m22 21v16c.0000235.6930582.3588504 1.3367034.9483635 1.701126.5895132.3644226 1.3256724.397671 1.9456365.087874l14-8c.6777282-.3387261 1.1058641-1.0313386 1.1058641-1.789s-.4281359-1.4502739-1.1058641-1.789l-14-8c-.6199641-.309797-1.3561233-.2765486-1.9456365.087874-.5895131.3644226-.94834 1.0080678-.9483635 1.701126z" fill="#3b97d3"/><g fill="#95a5a5"><path id="Shape" d="m37.418 9.675c-.3339107-.00024984-.645665-.16714533-.8310244-.44488322s-.2198635-.62966724-.0919756-.93811678l1.914-4.619c.2214269-.4935975.7952475-.72160323 1.2950606-.51458807.499813.20701516.7443685.77398012.5519394 1.27958807l-1.913 4.62c-.1550355.3739273-.520207.61750653-.925.617z"/><path id="Shape" d="m44.556 14.443c-.4043959-.0000863-.7689341-.2437275-.923678-.6173454-.1547439-.373618-.0692299-.8036603.216678-1.0896546l3.536-3.536c.3907415-.39074143 1.0242585-.39074142 1.415.00000003.3907414.39074145.3907414 1.02425847 0 1.41499997l-3.537 3.535c-.1870531.1882061-.4416514.2937185-.707.293z"/><path id="Shape" d="m49.325 21.581c-.4772478.0002902-.8881898-.3367019-.9813647-.804766s.1573876-.9367382.5983647-1.119234l4.62-1.913c.5103111-.2112489 1.0952511.0311889 1.3065.5415s-.0311889 1.0952511-.5415 1.3065c-4.993 2.068-4.718 1.989-5.002 1.989z"/></g><path id="Shape" d="m22 21v16c.0000235.6930582.3588504 1.3367034.9483635 1.701126.5895132.3644226 1.3256724.397671 1.9456365.087874l14-8c.6777282-.3387261 1.1058641-1.0313386 1.1058641-1.789s-.4281359-1.4502739-1.1058641-1.789l-14-8c-.6199641-.309797-1.3561233-.2765486-1.9456365.087874-.5895131.3644226-.94834 1.0080678-.9483635 1.701126z" fill="#285680"/><path id="Shape" d="m21 37v-16c-.0003113-1.0399641.5379943-2.0059054 1.4225954-2.5527201.8846011-.5468146 1.9892947-.5964906 2.9194046-.1312799l14.049 8.024c.9978098.5222351 1.6190775 1.5593191 1.6087457 2.6854839s-.6505224 2.1516758-1.6577457 2.6555161l-13.951 7.97c-.9288505.4860898-2.0440686.4520489-2.9415427-.0897876-.8974742-.5418364-1.4470025-1.5128611-1.4494573-2.5612124zm3.016-17c-.5544925.0010027-1.0061965.4455933-1.016 1v16c-.0019021.3475069.1767435.6710847.4718336.8546237.29509.1835391.6643076.2007194.9751664.0453763l13.953-7.979c.3588614-.1536507.5955058-.5020791.6060351-.8923088.0105294-.3902297-.2069815-.7509123-.5570351-.9236912-15.017-8.575-14.101-8.113-14.433-8.113z" fill="#3b97d3"/></g></svg>