<svg id="Capa_1" enable-background="new 0 0 512 512" height="512" viewBox="0 0 512 512" width="512" xmlns="http://www.w3.org/2000/svg"><g><g><g><path d="m256 512c-36.219 0-66.524-25.809-73.493-60h-167.507c-8.284 0-15-6.716-15-15v-262c0-8.284 6.716-15 15-15h482c8.284 0 15 6.716 15 15v262c0 8.284-6.716 15-15 15h-167.507c-6.969 34.191-37.274 60-73.493 60z" fill="#9ddff6"/><path d="m497 160h-241v352c36.219 0 66.524-25.809 73.493-60h167.507c8.284 0 15-6.716 15-15v-262c0-8.284-6.716-15-15-15z" fill="#8bb9ff"/></g><path d="m437 120h-121c-24.507 0-46.305 11.814-60 30.047-13.695-18.233-35.493-30.047-60-30.047h-121c-8.284 0-15 6.716-15 15v242c0 8.284 6.716 15 15 15h121c24.813 0 45 20.187 45 45 0 8.284 6.716 15 15 15s15-6.716 15-15c0-24.813 20.187-45 45-45h121c8.284 0 15-6.716 15-15v-242c0-8.284-6.716-15-15-15z" fill="#f9f1f1"/><path d="m437 120h-121c-24.507 0-46.305 11.814-60 30.047v301.953c8.284 0 15-6.716 15-15 0-24.813 20.187-45 45-45h121c8.284 0 15-6.716 15-15v-242c0-8.284-6.716-15-15-15z" fill="#e2dff4"/><g fill="#0052be"><path d="m188.5 212h-61c-8.284 0-15-6.716-15-15s6.716-15 15-15h61c8.284 0 15 6.716 15 15s-6.716 15-15 15z"/><path d="m188.5 272h-61c-8.284 0-15-6.716-15-15s6.716-15 15-15h61c8.284 0 15 6.716 15 15s-6.716 15-15 15z"/><path d="m188.5 332h-61c-8.284 0-15-6.716-15-15s6.716-15 15-15h61c8.284 0 15 6.716 15 15s-6.716 15-15 15z"/></g><path d="m384.5 212h-61c-8.284 0-15-6.716-15-15s6.716-15 15-15h61c8.284 0 15 6.716 15 15s-6.716 15-15 15z" fill="#00337a"/><path d="m384.5 272h-61c-8.284 0-15-6.716-15-15s6.716-15 15-15h61c8.284 0 15 6.716 15 15s-6.716 15-15 15z" fill="#00337a"/><path d="m384.5 332h-61c-8.284 0-15-6.716-15-15s6.716-15 15-15h61c8.284 0 15 6.716 15 15s-6.716 15-15 15z" fill="#00337a"/></g><g><path d="m376 0c1.094 0 2.186.12 3.254.357l90 20c6.863 1.525 11.746 7.613 11.746 14.643s-4.883 13.118-11.746 14.643l-90 20c-1.068.237-2.16.357-3.254.357-8.284 0-15-6.716-15-15v-40c0-8.284 6.716-15 15-15z" fill="#ffe4c1"/><g><g><path d="m469.254 49.643-90 20c-1.068.237-2.16.357-3.254.357-8.284 0-15-6.716-15-15v-20h120c0 7.03-4.883 13.118-11.746 14.643z" fill="#fdd1a3"/></g></g><path d="m46 70c-8.284 0-15-6.716-15-15v-40c0-8.284 6.716-15 15-15h60c8.284 0 15 6.716 15 15v40c0 8.284-6.716 15-15 15z" fill="#ff6c6c"/><path d="m106 70h-60c-8.284 0-15-6.716-15-15v-20h90v20c0 8.284-6.716 15-15 15z" fill="#f30051"/><path d="m106 70v-70h45c8.284 0 15 6.716 15 15v40c0 8.284-6.716 15-15 15z" fill="#f9f1f1"/><path d="m151 70h-45v-35h60v20c0 8.284-6.716 15-15 15z" fill="#e2dff4"/><g><path d="m151 0h225v70h-225z" fill="#0052be"/></g><g><path d="m151 35h225v35h-225z" fill="#00337a"/></g></g></g></svg>