<svg id="Capa_1" enable-background="new 0 0 512 512" height="512" viewBox="0 0 512 512" width="512" xmlns="http://www.w3.org/2000/svg"><g><path d="m426 137h-340c-24.813 0-45 20.187-45 45v180c0 24.813 20.187 45 45 45h340c24.813 0 45-20.187 45-45v-180c0-24.813-20.187-45-45-45z" fill="#27d8f6"/><path d="m426 137h-170v270h170c24.813 0 45-20.187 45-45v-180c0-24.813-20.187-45-45-45z" fill="#3aaaff"/><path d="m197.62 293.687c-10.226-8.181-23.587-12.687-37.62-12.687-30.327 0-55 21.084-55 47v64c0 8.284 6.716 15 15 15h80c8.284 0 15-6.716 15-15v-64c0-12.97-6.334-25.477-17.38-34.313z" fill="#ff712f"/><path d="m200 407c8.284 0 15-6.716 15-15v-64c0-12.97-6.334-25.477-17.38-34.313-10.226-8.181-23.587-12.687-37.62-12.687v126z" fill="#ff4c04"/><path d="m160 311c-25.916 0-47-21.084-47-47s21.084-47 47-47 47 21.084 47 47-21.084 47-47 47z" fill="#fed2a4"/><path d="m207 264c0-25.916-21.084-47-47-47v94c25.916 0 47-21.084 47-47z" fill="#ffbd86"/><path d="m485 377h-458c-14.888 0-27 12.112-27 27 0 41.355 33.645 75 75 75h362c41.355 0 75-33.645 75-75 0-14.888-12.112-27-27-27z" fill="#f5f0eb"/><path d="m485 377h-229v102h181c41.355 0 75-33.645 75-75 0-14.888-12.112-27-27-27z" fill="#dad0cb"/><path d="m467 33h-149c-24.813 0-45 20.187-45 45v127.799l-11.929 39.763c-3.623 12.076.512 24.822 10.535 32.47 5.399 4.12 11.772 6.202 18.175 6.202 5.484 0 10.991-1.528 15.923-4.611l26.598-16.623h134.698c24.813 0 45-20.187 45-45v-140c0-24.813-20.187-45-45-45z" fill="#ffda2d"/><path d="m467 33h-75v230h75c24.813 0 45-20.187 45-45v-140c0-24.813-20.187-45-45-45z" fill="#fdbf00"/><path d="m432 97h-80c-8.284 0-15 6.716-15 15s6.716 15 15 15h80c8.284 0 15-6.716 15-15s-6.716-15-15-15z" fill="#6c6c6c"/><path d="m432 97h-40v30h40c8.284 0 15-6.716 15-15s-6.716-15-15-15z" fill="#404040"/><path d="m408 169h-32c-8.284 0-15 6.716-15 15s6.716 15 15 15h32c8.284 0 15-6.716 15-15s-6.716-15-15-15z" fill="#6c6c6c"/><path d="m408 169h-16v30h16c8.284 0 15-6.716 15-15s-6.716-15-15-15z" fill="#404040"/></g></svg>