<svg id="Capa_1" enable-background="new 0 0 512 512" height="512" viewBox="0 0 512 512" width="512" xmlns="http://www.w3.org/2000/svg"><g><g><g><g><g><path d="m23.179 463.03v-385.038c0-17.069 13.837-30.905 30.905-30.905h403.831c17.069 0 30.905 13.837 30.905 30.905v385.038z" fill="#3f6e90"/><path d="m457.915 47.087h-30.905c17.069 0 30.905 13.837 30.905 30.905v385.038h30.905v-385.038c.001-17.068-13.836-30.905-30.905-30.905z" fill="#355f7f"/><path d="m54.085 236.808v241.67h403.831v-393.272c0-3.987-3.224-7.211-7.211-7.211h-389.409c-3.987 0-7.211 3.224-7.211 7.211v72.782z" fill="#d8ecfe"/><g><path d="m265.279 356.438v-34.864h-18.559v34.864c0 7.859-5.501 14.646-13.19 16.273l-21.386 1.255-30.183 6.386c-23.067 4.881-39.571 25.241-39.571 48.819v55.411h227.219v-55.411c0-23.578-16.503-43.939-39.571-48.819l-30.183-6.386-21.386-1.255c-7.689-1.627-13.19-8.414-13.19-16.273z" fill="#aee49e"/><g><path d="m280.003 391.758 19.13 4.047c23.067 4.881 39.571 25.241 39.571 48.819v39.959h30.905v-55.411c0-23.578-16.503-43.939-39.571-48.819l-30.183-6.386z" fill="#8bd8a5"/></g><path d="m212.144 373.967c9.401 14.225 25.529 23.615 43.856 23.615s34.455-9.39 43.856-23.615l-21.386-1.256c-7.689-1.627-13.19-8.414-13.19-16.273v-34.864h-34.011v34.864c0 7.859-5.501 14.646-13.19 16.273z" fill="#ffcebf"/><path d="m280.732 356.438v-34.864h-30.905v50.317c0 7.859 5.501 14.646 13.19 16.273l16.987 3.594c8.043-4.144 14.891-10.284 19.852-17.791l-5.934-1.256c-4.318-.918-7.935-3.43-10.309-6.916-1.828-2.685-2.881-5.919-2.881-9.357z" fill="#ffb09e"/><g><g><g><path d="m319.193 267.551h-126.387v-76.137c0-13.78 11.171-24.95 24.95-24.95h76.487c13.78 0 24.95 11.171 24.95 24.95z" fill="#e19974"/><path d="m294.243 166.463h-30.905c13.779 0 24.95 11.171 24.95 24.95v76.137h30.905v-76.137c0-13.779-11.171-24.95-24.95-24.95z" fill="#dc8758"/><path d="m319.193 245.6c-5.408-1.559-14.306-4.871-23.284-12.132-7.879-6.372-12.832-13.371-15.803-18.525-.902-1.566-3.001-1.92-4.358-.731-5.978 5.238-13.485 10.834-22.665 15.844-24.002 13.101-46.904 15.36-60.277 15.544v40.495c0 26.256 15.852 48.792 38.462 58.465 7.596 3.25 15.956 1.279 24.732 1.279 0 0 17.037 1.992 24.597-1.222 22.681-9.642 38.596-32.214 38.596-58.522z" fill="#ffcebf"/><path d="m295.909 233.468c-7.892-6.383-12.849-13.395-15.818-18.552-.899-1.561-2.987-1.893-4.342-.706-4.827 4.229-10.671 8.688-17.568 12.888 1.985 2.133 4.244 4.284 6.822 6.369 5.976 4.834 11.917 7.917 16.817 9.898 3.903 1.578 6.467 5.349 6.467 9.559v33.17c.185 4.181.563 23.089-13.584 39.342-16.669 19.149-40.067 19.177-43.435 19.123 4.054 1.722 9.341 3.477 15.672 4.396 3.301.479 6.347.652 9.059.652 34.901 0 63.193-28.436 63.193-63.513v-40.494c-5.408-1.559-14.306-4.871-23.283-12.132z" fill="#ffb09e"/><g><g><path d="m225.51 284.045c-4.267 0-7.726-3.459-7.726-7.726v-12.258c0-4.268 3.459-7.726 7.726-7.726s7.726 3.459 7.726 7.726v12.258c0 4.268-3.459 7.726-7.726 7.726z" fill="#3f6e90"/></g><g><path d="m286.488 284.045c-4.267 0-7.726-3.459-7.726-7.726v-12.258c0-4.268 3.459-7.726 7.726-7.726s7.726 3.459 7.726 7.726v12.258c.001 4.268-3.458 7.726-7.726 7.726z" fill="#3f6e90"/></g></g><g><path d="m255.653 329.31c-5.429-.058-10.816-1.477-15.581-4.105-3.736-2.06-5.096-6.76-3.035-10.496s6.76-5.097 10.497-3.035c1.768.975 4.64 2.145 8.282 2.183 3.763.053 6.802-1.165 8.649-2.184 3.737-2.06 8.437-.7 10.496 3.037 2.06 3.736.7 8.436-3.037 10.496-3.402 1.877-9.383 4.178-16.271 4.104z" fill="#ffb09e"/></g><path d="m326.917 275.582h-7.724v-29.982h7.724c8.258 0 14.953 6.695 14.953 14.953v.076c0 8.258-6.695 14.953-14.953 14.953z" fill="#ffcebf"/><path d="m185.082 275.582h7.724v-29.982h-7.724c-8.258 0-14.953 6.695-14.953 14.953v.076c-.001 8.258 6.694 14.953 14.953 14.953z" fill="#ffb09e"/></g></g></g></g><path d="m301.32 445.038v13.988c0 5.69-4.612 10.302-10.302 10.302h-70.037c-5.69 0-10.302-4.612-10.302-10.302v-13.988c0-5.69-4.612-10.302-10.302-10.302h-190.075c-5.69 0-10.302 4.613-10.302 10.302v36.056c0 17.069 13.837 30.906 30.905 30.906h450.189c17.069 0 30.906-13.837 30.906-30.905v-36.056c0-5.69-4.612-10.302-10.302-10.302h-190.076c-5.689-.001-10.302 4.612-10.302 10.301z" fill="#355f7f"/><g><path d="m501.698 434.736h-30.905c5.69 0 10.302 4.612 10.302 10.302v36.056c0 17.068-13.837 30.905-30.905 30.905h30.905c17.068.001 30.905-13.836 30.905-30.904v-36.056c0-5.69-4.612-10.303-10.302-10.303z" fill="#305972"/></g></g></g></g><g><path d="m354.615 131.645h-197.23c-18.144 0-32.853-14.709-32.853-32.853v-65.94c0-18.143 14.709-32.852 32.853-32.852h197.231c18.144 0 32.853 14.709 32.853 32.853v65.94c-.001 18.143-14.71 32.852-32.854 32.852z" fill="#f58a97"/><path d="m354.615 0h-30.905c18.144 0 32.853 14.709 32.853 32.853v65.94c0 18.144-14.709 32.853-32.853 32.853h30.905c18.144 0 32.853-14.709 32.853-32.853v-65.94c0-18.144-14.709-32.853-32.853-32.853z" fill="#f07281"/><g fill="#fff"><path d="m181.688 93.393c-.015 0-.03 0-.044 0-5.908.033-12.262.056-16.992.059v-62.986c0-4.268-3.459-7.726-7.726-7.726s-7.726 3.459-7.726 7.726v70.654c0 3.764 2.712 6.98 6.422 7.616.547.094 18.099.155 26.109.111 4.267-.024 7.707-3.502 7.683-7.77-.024-4.253-3.479-7.684-7.726-7.684z"/><path d="m212.881 22.739c-4.267 0-7.726 3.459-7.726 7.726v70.713c0 4.268 3.459 7.726 7.726 7.726s7.726-3.459 7.726-7.726v-70.712c.001-4.268-3.459-7.727-7.726-7.727z"/><path d="m355.074 93.453h-21.797v-19.582h19.621c4.267 0 7.726-3.459 7.726-7.726s-3.459-7.726-7.726-7.726h-19.621v-19.582h21.797c4.267 0 7.726-3.459 7.726-7.726s-3.459-7.726-7.726-7.726h-29.524c-4.267 0-7.726 3.459-7.726 7.726v70.068c0 4.268 3.459 7.726 7.726 7.726h29.524c4.267 0 7.726-3.459 7.726-7.726.001-4.268-3.458-7.726-7.726-7.726z"/><path d="m296.793 23.264c-4.054-1.349-8.424.846-9.769 4.896l-17.395 52.362-18.255-52.59c-1.399-4.031-5.802-6.167-9.833-4.766-4.031 1.399-6.164 5.801-4.766 9.832l24.196 69.705c1.32 3.716 4.844 6.201 8.784 6.201 3.988 0 7.544-2.547 8.844-6.373l23.089-69.501c1.346-4.048-.846-8.421-4.895-9.766z"/></g></g></g><g><path d="m7.211 236.811h83.192c1.913 0 3.747.76 5.099 2.112l21.759 21.759c2.596 2.596 7.035.757 7.035-2.914v-13.746c0-3.983 3.229-7.211 7.211-7.211h17.195c3.983 0 7.211-3.229 7.211-7.211v-64.4c0-3.983-3.229-7.211-7.211-7.211h-141.491c-3.983 0-7.211 3.229-7.211 7.211v64.4c0 3.982 3.229 7.211 7.211 7.211z" fill="#aee49e"/><path d="m148.702 157.988h-30.905c3.983 0 7.211 3.229 7.211 7.211v47.205c0 13.479-10.927 24.407-24.407 24.407-1.991 0-3.794.807-5.099 2.112l21.759 21.759c2.596 2.596 7.035.757 7.035-2.914v-13.746c0-3.983 3.229-7.211 7.211-7.211h17.195c3.983 0 7.211-3.229 7.211-7.211v-64.4c.001-3.983-3.228-7.212-7.211-7.212z" fill="#8bd8a5"/><g><path d="m115.276 205.126h-74.638c-4.267 0-7.726-3.459-7.726-7.726s3.459-7.726 7.726-7.726h74.638c4.267 0 7.726 3.459 7.726 7.726s-3.459 7.726-7.726 7.726z" fill="#d5efc8"/></g></g></g></svg>