<svg id="Capa_1" enable-background="new 0 0 512 512" height="512" viewBox="0 0 512 512" width="512" xmlns="http://www.w3.org/2000/svg"><g id="Note_1_"><path d="m48 128h384v352h-384z" fill="#fffa50"/><path d="m464 160v352h-384v-32h352v-320z" fill="#ffce33"/><path d="m176 128v48c0 26.561-21.439 48-48 48s-48-21.439-48-48v-48h32v48c0 8.961 7.039 16 16 16s16-7.039 16-16v-48z" fill="#ffa65c"/><g fill="#ffce33"><path d="m144 64h32v64h-32z"/><path d="m240 80v48h-32v-48c0-26.561-21.439-48-48-48s-48 21.439-48 48v48h-32v-48c0-44.16 35.84-80 80-80s80 35.84 80 80z"/><path d="m112 256h256v32h-256z"/><path d="m208 192h160v32h-160z"/><path d="m112 320h256v32h-256z"/><path d="m112 384h256v32h-256z"/></g></g></svg>