<?xml version="1.0" encoding="iso-8859-1"?>
<!-- Generator: Adobe Illustrator 19.0.0, SVG Export Plug-In . SVG Version: 6.00 Build 0)  -->
<svg version="1.1" id="Capa_1" xmlns="http://www.w3.org/2000/svg" xmlns:xlink="http://www.w3.org/1999/xlink" x="0px" y="0px"
	 viewBox="0 0 512 512" style="enable-background:new 0 0 512 512;" xml:space="preserve">
<linearGradient id="SVGID_1_" gradientUnits="userSpaceOnUse" x1="256" y1="514" x2="256" y2="2" gradientTransform="matrix(1 0 0 -1 0 514)">
	<stop  offset="0" style="stop-color:#2AF598"/>
	<stop  offset="1" style="stop-color:#009EFD"/>
</linearGradient>
<path style="fill:url(#SVGID_1_);" d="M256,512c-68.372,0-132.654-26.571-181.004-74.819C26.634,388.921,0,324.754,0,256.499v-0.998
	c0-68.255,26.634-132.422,74.996-180.682C123.346,26.571,187.628,0,256,0s132.654,26.571,181.004,74.819
	C485.366,123.079,512,187.246,512,255.501v0.998c0,68.255-26.634,132.422-74.996,180.682C388.654,485.429,324.372,512,256,512z
	 M256,40C136.897,40,40,136.673,40,255.501v0.998C40,375.327,136.897,472,256,472s216-96.673,216-215.501v-0.998
	C472,136.673,375.103,40,256,40z M256,380c-68.925,0-125-56.075-125-125s56.075-125,125-125s125,56.075,125,125S324.925,380,256,380
	z M256,170c-46.869,0-85,38.131-85,85s38.131,85,85,85s85-38.131,85-85S302.869,170,256,170z"/>
<g>
</g>
<g>
</g>
<g>
</g>
<g>
</g>
<g>
</g>
<g>
</g>
<g>
</g>
<g>
</g>
<g>
</g>
<g>
</g>
<g>
</g>
<g>
</g>
<g>
</g>
<g>
</g>
<g>
</g>
</svg>
