<svg id="Icon_Set" enable-background="new 0 0 256 256" height="512" viewBox="0 0 256 256" width="512" xmlns="http://www.w3.org/2000/svg"><path d="m210.591 226.692h-191.689c-2.761 0-5-2.239-5-5v-166.547h201.689v166.547c0 2.762-2.238 5-5 5z" fill="#ffe2e2"/><path d="m215.591 55.145h-201.689v-33.891c0-2.761 2.239-5 5-5h191.689c2.761 0 5 2.239 5 5z" fill="#44c7b6"/><path d="m63.641 73.814v136.301h-29.078c-2.761 0-5-2.239-5-5v-126.301c0-2.761 2.239-5 5-5z" fill="#ff4a73"/><path d="m199.931 78.814v126.301c0 2.761-2.239 5-5 5h-29.067v-136.301h29.067c2.761 0 5 2.239 5 5z" fill="#ff4a73"/><path d="m215.59 55.146v166.55c0 2.76-2.24 5-5 5h-15c2.76 0 5-2.24 5-5v-166.55z" fill="#ffcfcf"/><path d="m33.9 226.696h-15c-2.76 0-5-2.24-5-5v-166.55h15v166.55c0 2.76 2.24 5 5 5z" fill="#ffefee"/><path d="m215.59 21.256v33.89h-15v-33.89c0-2.76-2.24-5-5-5h15c2.76 0 5 2.24 5 5z" fill="#3bb2a0"/><path d="m33.9 16.256c-2.76 0-5 2.24-5 5v33.89h-15v-33.89c0-2.76 2.24-5 5-5z" fill="#4bdbc3"/><path d="m49.56 210.116h-15c-2.76 0-5-2.24-5-5v-126.3c0-2.76 2.24-5 5-5h15c-2.76 0-5 2.24-5 5v126.3c0 2.76 2.24 5 5 5z" fill="#f973a3"/><path d="m199.93 78.816v126.3c0 2.76-2.24 5-5 5h-15c2.76 0 5-2.24 5-5v-126.3c0-2.76-2.24-5-5-5h15c2.76 0 5 2.24 5 5z" fill="#ea2a6a"/><g fill="#ff4a73"><path d="m63.641 73.814h34.067v136.301h-34.067z"/><path d="m97.708 73.814h34.078v136.301h-34.078z"/><path d="m131.786 73.814h34.078v136.301h-34.078z"/></g><circle cx="195.764" cy="205.337" fill="#5fcdff" r="46.333"/><path d="m242.1 205.336c0 25.59-20.75 46.33-46.34 46.33-2.55 0-5.06-.21-7.5-.6 22.02-3.59 38.84-22.69 38.84-45.73s-16.82-42.14-38.84-45.73c2.44-.39 4.95-.6 7.5-.6 25.59 0 46.34 20.74 46.34 46.33z" fill="#30b6ff"/><path d="m203.26 251.066c-2.44.39-4.95.6-7.5.6-25.58 0-46.33-20.74-46.33-46.33s20.75-46.33 46.33-46.33c2.55 0 5.06.21 7.5.6-22.02 3.59-38.83 22.7-38.83 45.73s16.81 42.14 38.83 45.73z" fill="#73d7f9"/><path d="m219.59 161.033c0-1.881 0-135.701 0-139.77 0-4.96-4.04-9-9-9h-35.66v-7.97c0-5.281-8-5.294-8 0v7.97h-48.18v-7.97c0-5.285-8-5.293-8 0v7.97h-48.18v-7.97c0-5.285-8-5.293-8 0v7.97h-35.67c-4.96 0-9 4.04-9 9v200.44c0 4.96 4.04 9 9 9h133.4c8.74 14.93 24.95 24.97 43.46 24.97 27.76 0 50.34-22.58 50.34-50.33 0-19.13-10.74-35.81-26.51-44.31zm13.36 48.31h4.96c-1.9 20.16-17.99 36.25-38.15 38.14v-4.95c0-5.303-8-5.276-8 0v4.95c-20.226-1.908-36.283-18.087-38.14-38.14h4.95c5.192 0 5.347-8 0-8h-4.95c1.915-20.274 18.11-36.259 38.14-38.14v4.95c0 5.328 8 5.32 8 0v-4.95c.06 0 .11.01.17.02 19.864 1.913 36.072 17.841 37.98 38.12h-4.96c-5.288 0-5.285 8 0 8zm-214.05 13.36c-.55 0-1-.45-1-1v-162.55h193.69v98.41c-2.47-.82-5.03-1.46-7.66-1.88 0-11.74 0-67.792 0-76.86 0-4.96-4.04-9-9-9-3.112 0-156.478 0-160.37 0-4.96 0-9 4.04-9 9v126.3c0 4.96 4.04 9 9 9h111.64c.52 2.96 1.3 5.82 2.32 8.58zm-1-201.44c0-.55.45-1 1-1h35.67v6.59c0 5.285 8 5.293 8 0v-6.59h48.18v6.59c0 5.285 8 5.293 8 0v-6.59h48.18v6.59c0 5.305 8 5.274 8 0v-6.59h35.66c.55 0 1 .45 1 1v29.89h-193.69zm109.89 184.86h-26.08v-26.08h26.08zm-34.08 0h-26.07v-26.08h26.07zm-34.07 0h-25.08c-.55 0-1-.45-1-1v-25.08h26.08zm136.12-51.11c-9.47 0-18.33 2.63-25.9 7.19v-16.23h26.07v9.04zm-37.7 17.03h-22.27v-26.07h26.07v22.2c-1.34 1.22-2.61 2.51-3.8 3.87zm-30.27 0h-26.08v-26.07h26.08zm-68.15 0h-26.08v-26.07h26.08zm8-26.07h26.07v26.07h-26.07zm34.07-34.07h26.08v26.07h-26.08zm60.15 26.07h-26.07v-26.07h26.07zm34.07 0h-26.07v-26.07h26.07zm0-34.07h-26.07v-26.08h25.07c.55 0 1 .45 1 1zm-34.07 0h-26.07v-26.08h26.07zm-34.07 0h-26.08v-26.08h26.08zm-34.08 0h-26.07v-26.08h26.07zm-34.07 0h-26.08v-25.08c0-.55.45-1 1-1h25.08zm8 8h26.07v26.07h-26.07zm-8 0v26.07h-26.08v-26.07zm76.15 68.14h16.48c-4.961 8.473-7.132 18.232-6.83 26.08h-9.65z" fill="#5f266d"/><path d="m199.76 198.503v-18.17c0-.1 0-.2-.01-.29-.365-4.915-7.621-4.957-7.98 0-.01.09-.01.19-.01.29v18.17c-1.18.68-2.16 1.66-2.84 2.84h-10.36c-5.255 0-5.366 8 0 8h10.36c1.37 2.35 3.92 3.93 6.84 3.93 4.38 0 7.93-3.55 7.93-7.93 0-2.92-1.58-5.47-3.93-6.84z" fill="#5f266d"/></svg>