<svg id="Icon_Set" enable-background="new 0 0 256 256" height="512" viewBox="0 0 256 256" width="512" xmlns="http://www.w3.org/2000/svg"><path d="m208.271 180.455h-192.341c-5.523 0-10-4.477-10-10v-121.455c0-5.523 4.477-10 10-10h192.341c5.523 0 10 4.477 10 10v121.455c0 5.523-4.477 10-10 10z" fill="#87828e"/><path d="m83.828 180.455h56.544v36.545h-56.544z" fill="#87828e"/><path d="m197.209 165.526h-170.217c-2.781 0-5.036-2.255-5.036-5.036v-101.525c0-2.781 2.255-5.036 5.036-5.036h170.217c2.781 0 5.036 2.255 5.036 5.036v101.525c0 2.781-2.254 5.036-5.036 5.036z" fill="#5fcdff"/><path d="m90.895 135.548v13.554c0 1.938-1.571 3.508-3.508 3.508h-41.216c-1.938 0-3.508-1.571-3.508-3.508v-13.554c0-8.568 4.439-16.881 13.335-21.562 3.491-1.745 7.116-2.554 10.781-2.554 2.456 0 4.814.369 7.032 1.043 1.175.358 2.431.846 3.76 1.511 8.874 4.696 13.324 13.001 13.324 21.562z" fill="#3193f3"/><path d="m178.187 117.288h-55.773c-2.761 0-5-2.239-5-5v-36.933c0-2.761 2.239-5 5-5h55.773c2.761 0 5 2.239 5 5v36.933c0 2.762-2.238 5-5 5z" fill="#ffe2e2"/><path d="m218.27 49v121.45c0 5.53-4.48 10-10 10h-15c5.52 0 10-4.47 10-10v-121.45c0-5.52-4.48-10-10-10h15c5.52 0 10 4.48 10 10z" fill="#796e84"/><path d="m30.93 180.45h-15c-5.52 0-10-4.47-10-10v-121.45c0-5.52 4.48-10 10-10h15c-5.52 0-10 4.48-10 10v121.45c0 5.53 4.48 10 10 10z" fill="#a4a4a5"/><path d="m83.83 180.45h15v36.55h-15z" fill="#a4a4a5"/><path d="m125.37 180.45h15v36.55h-15z" fill="#796e84"/><path d="m183.19 75.35v36.94c0 2.76-2.24 5-5 5h-15c2.76 0 5-2.24 5-5v-36.94c0-2.76-2.24-5-5-5h15c2.76 0 5 2.24 5 5z" fill="#ffcfcf"/><path d="m137.41 117.29h-15c-2.76 0-5-2.24-5-5v-36.94c0-2.76 2.24-5 5-5h15c-2.76 0-5 2.24-5 5v36.94c0 2.76 2.24 5 5 5z" fill="#ffefee"/><path d="m90.89 135.55v13.55c0 1.94-1.57 3.51-3.5 3.51h-15c1.93 0 3.5-1.57 3.5-3.51v-13.55c0-8.56-4.44-16.87-13.32-21.56-1.16-.58-2.26-1.03-3.3-1.36 2.47-.81 4.98-1.2 7.51-1.2 2.46 0 4.81.37 7.03 1.05 1.18.35 2.43.84 3.76 1.51 8.88 4.69 13.32 13 13.32 21.56z" fill="#307fed"/><path d="m74.27 112.63c-1.1.37-2.19.82-3.27 1.36-8.9 4.68-13.34 12.99-13.34 21.56v13.55c0 1.94 1.57 3.51 3.51 3.51h-15c-1.94 0-3.51-1.57-3.51-3.51v-13.55c0-8.57 4.44-16.88 13.34-21.56 3.49-1.75 7.11-2.56 10.78-2.56 2.46 0 4.81.37 7.03 1.05.15.04.3.09.46.15z" fill="#35b1fc"/><path d="m77.571 113.986-3.173 5.488-5.593 9.686c-.9 1.559-3.151 1.559-4.051 0l-5.593-9.686-3.163-5.488c.001-.002.001-.003.001-.004 3.417-1.704 7.038-2.549 10.78-2.549 2.456 0 4.814.369 7.032 1.043 1.175.358 2.43.845 3.76 1.51z" fill="#ffbb98"/><ellipse cx="66.778" cy="95.366" fill="#ffbb98" rx="18.204" ry="18.204" transform="matrix(.998 -.071 .071 .998 -6.592 4.974)"/><path d="m74.28 111.95c-2.29 1.04-4.83 1.62-7.5 1.62-10.06 0-18.21-8.15-18.21-18.2 0-10.06 8.15-18.21 18.21-18.21 2.67 0 5.21.58 7.5 1.62-6.32 2.85-10.71 9.2-10.71 16.59 0 7.38 4.39 13.73 10.71 16.58z" fill="#ffcaa6"/><path d="m90.89 90.584c0 1.272-1.031 2.303-2.303 2.303-9.165 0-9.672.581-15.074-9.703-2.1 3.987-4.088 9.703-10.237 9.703h-18.311c-1.272 0-2.303-1.031-2.303-2.303 0-21.547 26.112-32.099 41.163-17.047 8.066 8.049 7.065 18.282 7.065 17.047z" fill="#87828e"/><path d="m57.66 90.58c0 1.28 1.03 2.31 2.31 2.31h-15c-1.28 0-2.31-1.03-2.31-2.31 0-17.49 17.22-27.75 31.76-22.91-9.27 2.99-16.76 11.38-16.76 22.91z" fill="#a4a4a5"/><path d="m202.25 58.97v101.52c0 2.78-2.26 5.04-5.04 5.04h-15c2.78 0 5.04-2.26 5.04-5.04v-101.52c0-2.79-2.26-5.04-5.04-5.04h15c2.78 0 5.04 2.25 5.04 5.04z" fill="#30b6ff"/><path d="m41.99 165.53h-15c-2.78 0-5.03-2.26-5.03-5.04v-101.52c0-2.79 2.25-5.04 5.03-5.04h15c-2.78 0-5.03 2.25-5.03 5.04v101.52c0 2.78 2.25 5.04 5.03 5.04z" fill="#73d7f9"/><circle cx="212.525" cy="170.455" fill="#f9d335" r="37.563"/><path d="m230.499 169.023c1.338.773 1.338 2.705 0 3.477-.596.344-26.184 15.117-25.7 14.838-1.338.773-3.012-.193-3.012-1.739 0-.688 0-30.234 0-29.676 0-1.546 1.673-2.511 3.012-1.739.595.345 26.183 15.119 25.7 14.839z" fill="#ff4a73"/><path d="m214.79 159.96v21.61c-5.19 3-9.73 5.61-9.99 5.77-1.34.77-3.01-.19-3.01-1.74v-29.68c0-1.54 1.67-2.51 3.01-1.73.24.14 4.79 2.76 9.99 5.77z" fill="#f973a3"/><path d="m239.09 197.02c-9.24 9.23-22.13 12.64-34.07 10.23 6.99-1.41 13.65-4.82 19.07-10.23 14.64-14.65 14.64-38.48 0-53.13-5.42-5.41-12.08-8.82-19.07-10.23 11.94-2.41 24.83 1 34.07 10.23 14.64 14.65 14.64 38.48 0 53.13z" fill="#f2c300"/><path d="m200.96 197.02c5.41 5.41 12.07 8.82 19.06 10.23-11.93 2.41-24.82-1-34.06-10.23-14.64-14.65-14.64-38.48 0-53.13 9.24-9.23 22.13-12.64 34.06-10.23-6.99 1.41-13.65 4.82-19.06 10.23-14.64 14.65-14.64 38.48 0 53.13z" fill="#f9e27d"/><g fill="#5f266d"><path d="m178.19 66.35h-55.78c-4.96 0-9 4.04-9 9v36.94c0 4.96 4.04 9 9 9h55.78c4.96 0 9-4.04 9-9v-36.94c0-4.96-4.04-9-9-9zm1 45.94c0 .55-.45 1-1 1h-55.78c-.55 0-1-.45-1-1v-36.94c0-.55.45-1 1-1h55.78c.55 0 1 .45 1 1z"/><path d="m163.61 83.19h-26.62c-5.281 0-5.294 8 0 8h26.62c5.306 0 5.273-8 0-8z"/><path d="m163.61 96.45h-26.62c-5.285 0-5.293 8 0 8h26.62c5.284 0 5.295-8 0-8z"/><path d="m88.92 96.87c3.32-.16 5.97-2.92 5.97-6.29 0-19.336-19.621-33.898-38.9-25.91-10.69 4.43-17.33 14.36-17.33 25.91 0 3.36 2.65 6.12 5.97 6.29.39 5.9 3.1 11.17 7.21 14.92-8.3 5.3-13.18 14.01-13.18 23.76v13.55c0 4.14 3.37 7.51 7.51 7.51h41.22c4.14 0 7.5-3.37 7.5-7.51v-13.55c0-9.72-4.85-18.41-13.18-23.76 4.12-3.75 6.82-9.02 7.21-14.92zm-2.03 51.74h-40.23v-13.06c0-6.46 2.87-12.12 7.94-15.98l6.69 11.59c2.431 4.217 8.546 4.223 10.98 0l6.68-11.57c5.09 3.89 7.94 9.53 7.94 15.96zm-5.89-72.24c3.593 3.593 5.513 8.311 5.87 12.52-1.29.01-2.3.01-3.1-.04-1.1-.06-1.78-.19-2.2-.47-1.15-.77-2.79-3.78-4.52-7.06-1.494-2.836-5.552-2.86-7.08 0-2.114 3.956-3.25 7.57-6.69 7.57-6.102 0-10.377 0-16.55 0 .14-1.78.48-3.42 1-4.93 4.464-13.152 22.305-18.571 33.27-7.59zm-17.72 20.52c5.04 0 8.18-2.67 10.3-5.62 2.19 3.19 4.19 4.62 7.35 5.23-.4 5.11-3.52 9.47-7.92 11.63-3.819 1.869-8.418 1.973-12.47 0-4.28-2.1-7.36-6.3-7.89-11.24zm7.84 20.25-4.34 7.53-4.35-7.53c2.889.573 5.821.573 8.69 0z"/><path d="m241.91 141.07c-5.49-5.49-12.26-9.26-19.64-11.02v-81.05c0-7.72-6.28-14-14-14h-192.34c-7.72 0-14 6.28-14 14v121.46c0 7.71 6.28 14 14 14h63.9v28.54h-6.34c-5.285 0-5.293 8 0 8h77.22c5.285 0 5.293-8 0-8h-6.34v-28.54h29.03c5.742 16.134 21.152 27.54 39.12 27.54 22.835 0 41.55-18.408 41.55-41.54 0-11.12-4.32-21.55-12.16-29.39zm-62.91 28.46c.462-17.794 14.933-32.62 33.52-32.62 18.62 0 33.55 15.002 33.55 33.55 0 45.932-68.408 43.169-67.07-.93zm19.25-38.12c-5.62 2.05-10.77 5.31-15.11 9.66-5.82 5.82-9.56 12.96-11.2 20.46h-144.95c-.57 0-1.03-.47-1.03-1.04v-101.53c0-.57.46-1.03 1.03-1.03h170.22c.57 0 1.04.46 1.04 1.03zm-61.88 81.59h-48.54v-28.54h48.54zm4-36.54h-56.54-67.9c-3.31 0-6-2.7-6-6v-121.46c0-3.31 2.69-6 6-6h192.34c3.31 0 6 2.69 6 6v79.95c-2.239-.116-5.126-.005-8.02.43v-70.42c0-4.98-4.06-9.03-9.04-9.03h-170.22c-4.98 0-9.03 4.05-9.03 9.03v101.53c0 4.98 4.05 9.04 9.03 9.04h144c-.05 2.31.09 4.63.42 6.93z"/><path d="m232.5 165.56c-.344-.199-25.856-14.954-26.25-15.12-3.884-1.741-8.403 1.014-8.46 5.44v29.72c0 4.595 4.998 7.528 9.01 5.2 3.576-2.047 4.851-2.794 25.7-14.83 3.982-2.304 4.002-8.096 0-10.41zm-26.71 16.59c0-10.334 0-12.404 0-22.77 0 0 19.717 11.379 19.72 11.38-1.45.837-18.139 10.474-19.72 11.39z"/></g></svg>